Coordinates
version=1
nRows=9
nColumns=24
inDegrees=yes

Units are S.I. units (second, meters, Newtons, ...)
Angles are in degrees.

endheader
time	pelvis_tilt	pelvis_list	pelvis_rotation	pelvis_tx	pelvis_ty	pelvis_tz	hip_flexion_r	hip_adduction_r	hip_rotation_r	knee_angle_r	ankle_angle_r	subtalar_angle_r	mtp_angle_r	hip_flexion_l	hip_adduction_l	hip_rotation_l	knee_angle_l	ankle_angle_l	subtalar_angle_l	mtp_angle_l	lumbar_extension	lumbar_bending	lumbar_rotation
      0.63800000	      0.19212810	      5.49632180	      3.88005671	     -0.81907707	      0.96455378	      0.30526484	     29.67706355	     -5.85325218	     -2.11575529	     -9.66457411	     13.57277080	     -7.55202388	      0.37684153	    -18.85449358	      7.50685342	      6.07161803	    -11.00062064	     10.47091521	    -10.18650844	      0.62709778	      0.73451420	     -2.52541369	     -1.55927074
      0.64216667	      0.18837904	      5.41883261	      3.94141593	     -0.81284180	      0.96392155	      0.30568656	     29.68716440	     -5.76700762	     -2.03058684	    -10.21532067	     13.49641965	     -7.59103656	      0.39495067	    -19.01410388	      7.36358469	      5.98251885	    -11.37935706	     10.27378780	    -10.18500654	      0.67314226	      0.81081129	     -2.42945032	     -1.58562241
      0.64633333	      0.10648409	      5.33582179	      4.00122349	     -0.80656690	      0.96319984	      0.30615990	     29.76030482	     -5.66003862	     -1.85675694	    -10.75268408	     13.44649036	     -7.72337474	      0.46741397	    -19.05435274	      7.21679930	      5.83867071	    -11.82477538	     10.07493005	    -10.05100072	      0.87956318	      0.98812125	     -2.33566267	     -1.68621545
      0.65050000	      0.04062299	      5.23355976	      4.06661717	     -0.80026740	      0.96252656	      0.30665279	     29.77033211	     -5.52301736	     -1.62800038	    -11.21788140	     13.21931365	     -8.11371039	      0.66482436	    -19.07270062	      7.04410380	      5.63947811	    -12.34770358	      9.95206557	     -9.90429616	      1.50134426	      1.15411261	     -2.22541854	     -1.80031529
      0.65466667	      0.01140343	      5.11414038	      4.11399401	     -0.79381060	      0.96193728	      0.30710203	     29.74563673	     -5.37654078	     -1.53949876	    -11.72280914	     13.03966678	     -8.16234176	      0.72459040	    -19.19494395	      6.86706622	      5.54493696	    -12.73681105	      9.58711475	     -9.95747975	      1.69271707	      1.30653438	     -2.06274528	     -1.80564805
      0.65883333	     -0.09072425	      5.00609938	      4.17398972	     -0.78742650	      0.96125845	      0.30760940	     29.77776914	     -5.22683190	     -1.33323440	    -12.18751300	     12.72299277	     -8.51881493	      0.91955130	    -19.15476264	      6.69962824	      5.37565263	    -13.28873156	      9.37554598	     -9.94023345	      2.35247006	      1.51163991	     -1.95840681	     -1.89518071
      0.66300000	     -0.12626811	      4.85643634	      4.21369473	     -0.78085750	      0.96071341	      0.30807977	     29.73875932	     -5.04425144	     -1.29766273	    -12.68455542	     12.48492556	     -8.56138282	      0.96536382	    -19.24550321	      6.49306542	      5.24860969	    -13.71713249	      8.97166036	     -9.97982168	      2.50804860	      1.68351768	     -1.75751214	     -1.89821211
      0.66716667	     -0.18901610	      4.68943013	      4.25816709	     -0.77431220	      0.96014521	      0.30859895	     29.70294019	     -4.83231161	     -1.20407138	    -13.12736039	     12.10141470	     -8.85995510	      2.46151723	    -19.24093386	      6.26108234	      5.02887652	    -14.26227903	      8.60274594	    -10.03295467	      7.52219602	      1.87009937	     -1.56259586	     -1.87153497
      0.67133333	     -0.26717507	      4.55304969	      4.28335636	     -0.76771329	      0.95959340	      0.30909992	     29.70285388	     -4.65246352	     -1.15387207	    -13.61825270	     11.74888198	     -8.91855914	      2.46670610	    -19.23730922	      6.07832191	      4.86368049	    -14.77215142	      8.15541252	    -10.09602838	      7.53555484	      2.09483295	     -1.39394006	     -1.91854122
